<svg xmlns="http://www.w3.org/2000/svg" viewBox="0 0 85 62.147">
  <defs>
    <style>
      .cls-1 {
        fill: #ff9300;
      }
    </style>
  </defs>
  <g id="H6bnPt.tif_1_" transform="translate(0.2)">
    <g id="Group_13" data-name="Group 13" transform="translate(-0.2)">
      <path id="Path_56" data-name="Path 56" class="cls-1" d="M.357,18.672c4.459-3.344,8.918-6.689,13.1-10.311a10.059,10.059,0,0,1,7.8-2.787c1.393.279,1.951,0,2.787-1.393A7.38,7.38,0,0,1,31.013,0h45.7C81.456,0,84.8,3.344,84.8,8.361v28.7c0,5.016-3.344,8.082-8.361,8.082H45.5a4.615,4.615,0,0,0-3.623,1.393c-3.066,3.066-5.852,6.41-9.2,9.2a23.34,23.34,0,0,1-16.721,6.41H-.2V56.574c4.738,0,9.754-.279,14.492,0,7.525.557,13.1-2.508,17.836-8.082,2.787-3.344,6.131-6.131,9.2-9.2a81.357,81.357,0,0,1,7.8-5.852c1.393-1.115,1.951-2.23,1.115-3.9s-2.508-1.672-3.9-1.115c-.557.279-1.393.557-1.951.836C36.029,32.607,27.948,35.951,19.308,39.3c-.557-1.672-1.393-3.344-1.951-5.3A17.047,17.047,0,0,1,20.7,32.607,2.221,2.221,0,0,0,22.652,30.1V11.426a5.977,5.977,0,0,0-5.574,1.393C11.5,17.279,5.931,21.459.357,25.918ZM28.5,29.82A28.915,28.915,0,0,0,31.292,28.7c4.738-1.951,9.475-3.9,14.213-5.574a8.537,8.537,0,0,1,10.311,3.9,8.312,8.312,0,0,1-2.508,10.59A26.989,26.989,0,0,1,50.8,39.574H76.718c1.672,0,2.508-.836,2.508-2.787V17H28.5ZM79.226,11.148c.836-4.738.279-5.574-4.459-5.574H31.57c-2.508,0-3.066.836-3.066,3.344v2.508C45.5,11.148,62.226,11.148,79.226,11.148Z" transform="translate(0.2 0)"/>
    </g>
  </g>
</svg>
