<svg xmlns="http://www.w3.org/2000/svg" viewBox="0 0 93.095 28.924">
  <defs>
    <style>
      .cls-1 {
        fill: #ff9300;
      }
    </style>
  </defs>
  <g id="_x35_U9oo1.tif_1_" transform="translate(0.1 0.1)">
    <g id="Group_14" data-name="Group 14" transform="translate(-0.1 -0.1)">
      <path id="Path_57" data-name="Path 57" class="cls-1" d="M-.059,0H12.875a6.219,6.219,0,0,1,4.339,1.529,4.737,4.737,0,0,1,1.529,4.215,7.821,7.821,0,0,1-1.364,3.512c-.413.62-.826,1.2-1.2,1.818a2.532,2.532,0,0,1-.165.248,6.685,6.685,0,0,0,.744.413,10.668,10.668,0,0,1,4.132,4.215,8.559,8.559,0,0,1-3.8,11.818,9.926,9.926,0,0,1-4.173,1.074c-.537.041-1.033.041-1.57.041H-.1Q-.038,14.442-.059,0ZM10.685,12.685a.864.864,0,0,0,.165-.248c.785-1.2,1.57-2.355,2.355-3.554a3.02,3.02,0,0,0,.537-2.355A3.337,3.337,0,0,0,10.4,3.76H6.759V25a.04.04,0,0,1,.041.041,20.926,20.926,0,0,0,3.595-.124,5.01,5.01,0,0,0,4.132-3.636,8.392,8.392,0,0,0-.041-5.041,4.929,4.929,0,0,0-3.14-3.306A3.132,3.132,0,0,0,10.685,12.685Z" transform="translate(0.1 0.041)"/>
      <path id="Path_58" data-name="Path 58" class="cls-1" d="M59.3,28.883V0H72.233a6.417,6.417,0,0,1,4.173,1.364,4.676,4.676,0,0,1,1.777,3.388,6.55,6.55,0,0,1-1.157,4.173c-.455.744-.992,1.488-1.446,2.19-.041.083-.083.124-.124.207.248.124.455.248.661.372a11,11,0,0,1,4.339,4.463,7.93,7.93,0,0,1,.909,4.339,8.4,8.4,0,0,1-4.132,6.859A10.013,10.013,0,0,1,72.894,28.8c-.578.041-1.157.083-1.777.083H59.3ZM70,12.685a.864.864,0,0,1,.165-.248c.785-1.157,1.57-2.355,2.355-3.512A3.2,3.2,0,0,0,73.06,6.4,3.373,3.373,0,0,0,69.713,3.76H66.448c-.455,0-.413-.041-.413.413v20.66c0,.165.041.248.207.248h2.025a11.293,11.293,0,0,0,1.653-.207A4.972,4.972,0,0,0,73.8,21.363a8.477,8.477,0,0,0-.041-5.165A4.887,4.887,0,0,0,71.2,13.181,10.4,10.4,0,0,0,70,12.685Z" transform="translate(-34.756 0.041)"/>
      <path id="Path_59" data-name="Path 59" class="cls-1" d="M187.469,28.883h-7.438c-.248,0-.331-.083-.413-.331l-1.735-5.7c-.041-.207-.124-.248-.331-.248H167.511a.289.289,0,0,0-.331.248c-.578,1.942-1.157,3.843-1.735,5.785-.041.124-.083.207-.248.207h-4.3c.041-.083.041-.165.083-.248,1.983-6.529,4.008-13.1,5.992-19.627.909-2.892,1.777-5.826,2.645-8.719.041-.207.165-.248.372-.248h5.454a8.7,8.7,0,0,1,1.033.083,2.021,2.021,0,0,1,1.529,1.157q.558,1.24.992,2.479,4.153,12.4,8.388,24.792C187.428,28.635,187.428,28.718,187.469,28.883Zm-10.95-10.454c-1.322-4.421-2.644-8.76-4.008-13.14h-.083c-1.322,4.38-2.6,8.76-3.925,13.14Z" transform="translate(-94.374 0.041)"/>
      <path id="Path_60" data-name="Path 60" class="cls-1" d="M108.2-.059h4.173c.537,0,1.116,0,1.653.041A1.86,1.86,0,0,1,115.72,1.1a13.467,13.467,0,0,1,.826,1.983l2.6,8.553c.992,3.306,1.983,6.611,2.975,9.958.041.083.041.165.124.207.207-.661.372-1.281.578-1.942,1.942-6.57,3.925-13.14,5.868-19.71a.273.273,0,0,1,.289-.248h4.3c-.041.124-.041.207-.083.331-2.892,9.421-5.744,18.884-8.636,28.3-.041.207-.165.248-.331.248h-6.363a.322.322,0,0,1-.372-.248c-3.1-9.462-6.157-18.884-9.256-28.346A.728.728,0,0,0,108.2-.059Z" transform="translate(-63.45 0.1)"/>
    </g>
  </g>
</svg>
