<svg xmlns="http://www.w3.org/2000/svg" viewBox="0 0 421.365 218.003">
  <defs>
    <style>
      .cls-1 {
        fill: #ff7f00;
      }

      .cls-10, .cls-2, .cls-3, .cls-4, .cls-5, .cls-7 {
        fill: none;
      }

      .cls-2 {
        stroke-linejoin: round;
      }

      .cls-3 {
        stroke: #83ecff;
      }

      .cls-3, .cls-5 {
        stroke-linecap: round;
      }

      .cls-3, .cls-4, .cls-5 {
        stroke-width: 4px;
      }

      .cls-4 {
        stroke: #db0043;
      }

      .cls-5 {
        stroke: #ffd800;
      }

      .cls-6 {
        fill: #00fc7e;
      }

      .cls-7 {
        stroke: #00fff5;
        stroke-width: 6px;
      }

      .cls-8, .cls-9 {
        stroke: none;
      }

      .cls-9 {
        fill: #a700ff;
      }
    </style>
  </defs>
  <g id="Group_607" data-name="Group 607" transform="translate(-123.725 -599.385)">
    <g id="Group_27" data-name="Group 27" transform="translate(242.974 599.365)">
      <path id="Path_134" data-name="Path 134" class="cls-1" d="M27.51.046h7.139Q97.774.046,161,.079c8.089,0,6.222-.982,11.757,5.076,6.321,6.943,12.576,13.919,18.864,20.927,1.31,1.441,2.522,2.98,3.635,4.29a4.308,4.308,0,0,1-.1.95,1.308,1.308,0,0,1-.229.589c-1.015,1.408-2.03,2.849-3.078,4.225q-37.777,49.419-75.619,98.772a8.265,8.265,0,0,1-1.179.917c-1.965.262-4.094.524-6.615.852.458,4.978,1.408,9.759-1.375,14.41,2.325,1.277,4.388,2.358,6.419,3.537,19.257,11.233,21.418,35.6,10.021,49.91-8.973,11.266-20.8,15.785-34.878,12.379-13.755-3.308-21.975-12.412-25.348-26.2-2.816-11.462,2.26-28.623,17.062-36.516,1.7-.917,3.406-1.834,5.174-2.784a64.644,64.644,0,0,1-1.441-7.172,46.353,46.353,0,0,1,.426-6.615c-1.965-1.212-4.126-2.161-5.8-3.668a41.6,41.6,0,0,1-4.454-5.633Q39.119,82.3,3.93,36.234C2.62,34.531,1.441,32.73,0,30.7,9.137,20.285,18.307,10.4,27.51.046ZM151.532,34.106c-4.519-.589-99.1-.982-105.257-.491a7.936,7.936,0,0,0-2.063.884,32.476,32.476,0,0,0,1.6,2.882c14.082,19.813,47.945,63.436,52.137,67.2a5.122,5.122,0,0,0,1.539-1.048Q125.136,69.983,150.68,36.4A9.769,9.769,0,0,0,151.532,34.106ZM124.448,184.1c-.066-14.606-11.266-27.87-27.87-27.9a27.87,27.87,0,1,0-.1,55.74C112.4,211.968,124.251,199.458,124.448,184.1ZM12.019,27.032c3.144.229,5.011.458,6.91.458q79.188.049,158.344,0a27.333,27.333,0,0,0,3.275-.065,17.773,17.773,0,0,0,2.816-.917c-3.144-4.487-5.862-8.286-11.692-7.238a13.116,13.116,0,0,1-1.965,0H26.429c-1.31,0-2.62.1-3.93,0a7.028,7.028,0,0,0-6.845,3.013C14.8,23.495,13.82,24.674,12.019,27.032Zm158.442-14.7c-2.423-3.471-4.257-6.812-9.1-6.19a13.118,13.118,0,0,1-1.965,0H36.483a35.594,35.594,0,0,0-4.585.1c-2.915.327-5.174,3.046-5.7,6.976q70.984,0,141.838-.033A12.026,12.026,0,0,0,170.461,12.327ZM88.489,129.079c6.288,1.932,7.172,1.736,10.676-2.882q33.5-43.868,66.973-87.8c.884-1.146,1.572-2.456,2.784-4.356a19.9,19.9,0,0,0-8.679-.033Q125.07,80.184,89.57,126.819A11.1,11.1,0,0,0,88.489,129.079Zm16.44.2c5.142,1.9,8.024.36,10.742-3.275,11.757-15.687,23.743-31.21,35.664-46.8,10.054-13.165,20.141-26.3,30.13-39.5,1.244-1.67,3.242-3.046,2.947-5.666-4.257-1.375-7.7-.589-10.021,3.537a10.916,10.916,0,0,1-.786,1.048q-32.471,42.64-64.975,85.28C107.451,125.411,106.436,127.049,104.929,129.276ZM10.84,33.811a12.173,12.173,0,0,0,.982,2.587q33.9,44.408,67.857,88.784a7.239,7.239,0,0,0,1.6,1.146,7.179,7.179,0,0,0,3.963-5.338c-5.436-7.139-10.938-14.41-16.473-21.68Q60.423,88.4,52.1,77.5c-5.666-7.434-11.3-14.934-17.062-22.335-5.6-7.2-10.775-14.7-16.571-21.353Zm16.571.262a43.063,43.063,0,0,0,2.358,4.094c5.109,6.779,10.283,13.526,15.425,20.3q19.8,25.987,39.66,51.973c1.408,1.834,2.489,4.061,4.781,4.978,2.62-2.292,2.587-2.325,3.8-5.535-19.289-25.283-38.677-50.729-58-76.077-1.932-.1-3.439-.229-4.945-.229A18.09,18.09,0,0,0,27.411,34.073ZM96.48,149.81A6.408,6.408,0,1,0,96.251,137a6.4,6.4,0,0,0,.229,12.805Z" transform="translate(0 0)"/>
      <path id="Path_135" data-name="Path 135" class="cls-1" d="M279.588,520.643v19.65c1.867,2,6.19,2.358,4,6.419-4.225,1.572-8.187,1.7-14.8.328-.065-1.114-.164-2.358-.262-3.832,1.572-.786,3.079-1.506,4.781-2.358a43.83,43.83,0,0,0-.1-13.558c-1.867-.426-3.5-.818-5.5-1.277v-5.076C271.5,520.218,275.134,520.643,279.588,520.643Z" transform="translate(-180.03 -350.038)"/>
    </g>
    <g id="Symbol_1_1" data-name="Symbol 1 – 1" transform="translate(135.474 37.23)">
      <g id="Path_137" data-name="Path 137" class="cls-2" transform="translate(41.238 538.099)">
        <path class="cls-8" d="M37.5,209.187l14.381-24.219,14.381,24.219Z"/>
        <path class="cls-9" d="M 59.23444747924805 205.1867218017578 L 51.88076019287109 192.8020629882813 L 44.52708053588867 205.1867218017578 L 59.23444747924805 205.1867218017578 M 66.26152801513672 209.1867218017578 L 37.5 209.1867218017578 L 51.88076019287109 184.9674377441406 L 66.26152801513672 209.1867218017578 Z"/>
      </g>
    </g>
    <g id="Symbol_2_1" data-name="Symbol 2 – 1" transform="translate(137.092 18)">
      <g id="Group_26" data-name="Group 26" transform="translate(134.598 528.797) rotate(45)">
        <line id="Line_1" data-name="Line 1" class="cls-3" x2="15.277" y2="15.277" transform="translate(63.5 119.5)"/>
        <line id="Line_2" data-name="Line 2" class="cls-3" x1="15.277" y2="15.277" transform="translate(63.5 119.5)"/>
      </g>
    </g>
    <g id="Ellipse_23" data-name="Ellipse 23" class="cls-4" transform="translate(417 680.888)">
      <ellipse class="cls-8" cx="16.497" cy="17.108" rx="16.497" ry="17.108"/>
      <ellipse class="cls-10" cx="16.497" cy="17.108" rx="14.497" ry="15.108"/>
    </g>
    <g id="Symbol_3_1" data-name="Symbol 3 – 1" transform="translate(215.29 31.097)">
      <path id="Path_136" data-name="Path 136" class="cls-5" d="M37.5,202.6,51.566,188.53,65.633,202.6,79.7,188.53,93.765,202.6l14.066-14.066L121.9,202.6l14.066-14.066L150.03,202.6" transform="translate(176.818 528.47)"/>
    </g>
    <g id="Symbol_4_1" data-name="Symbol 4 – 1" transform="translate(87.725 25.463)">
      <circle id="Ellipse_21" data-name="Ellipse 21" class="cls-6" cx="5" cy="5" r="5" transform="translate(36 680)"/>
    </g>
    <g id="Symbol_5_1" data-name="Symbol 5 – 1" transform="translate(199.09 18)">
      <g id="Ellipse_22" data-name="Ellipse 22" class="cls-7" transform="translate(323 651)">
        <circle class="cls-8" cx="11.5" cy="11.5" r="11.5"/>
        <circle class="cls-10" cx="11.5" cy="11.5" r="8.5"/>
      </g>
    </g>
  </g>
</svg>
