<svg xmlns="http://www.w3.org/2000/svg" viewBox="0 0 272.656 31.327">
  <defs>
    <style>
      .cls-1 {
        fill: none;
        stroke: #ff00b1;
        stroke-linecap: round;
        stroke-miterlimit: 10;
        stroke-width: 6px;
      }
    </style>
  </defs>
  <path id="Path_384" data-name="Path 384" class="cls-1" d="M1.5,26.8,29.29,4.213C34.109.328,40.053.571,44.711,4.942l15.9,14.812c4.658,4.371,10.6,4.614,15.421.728L95.954,4.213c4.819-3.885,10.763-3.642,15.421.728l15.9,14.812c4.658,4.371,10.6,4.614,15.421.728L162.618,4.213c4.819-3.885,10.763-3.642,15.421.728l15.9,14.812c4.658,4.371,10.6,4.614,15.421.728L229.282,4.213C234.1.328,240.045.571,244.7,4.942L268.156,26.8" transform="translate(271.156 29.796) rotate(-180)"/>
</svg>
