<svg id="Group_28" data-name="Group 28" xmlns="http://www.w3.org/2000/svg" viewBox="0 0 186.42 187.194">
  <defs>
    <style>
      .cls-1 {
        fill: #ffce00;
      }
    </style>
  </defs>
  <path id="Path_97" data-name="Path 97" class="cls-1" d="M70.282,139.28c-8.52-1.749-16.843-3.244-25.052-5.219a97.4,97.4,0,0,1-26.1-10.382A47.84,47.84,0,0,1,5.337,112.2C2.375,108.387.315,104.212.033,99.36a55.33,55.33,0,0,1,.254-5.84c2.031-1.044,3.244-.226,4.655.818v2.2a19.292,19.292,0,0,0,4.909,12.893,43.457,43.457,0,0,0,11.228,9.31,93.916,93.916,0,0,0,23.331,9.733c5.05,1.439,10.213,2.511,15.347,3.611a24.126,24.126,0,0,0,4.542.056c-.2-2.483-1.777-3.95-2.878-5.614a276.606,276.606,0,0,1-22.09-39.92c-5.5-12.413-9.959-25.165-12.385-38.538-1.5-8.351-2.37-16.758-.592-25.222a28.263,28.263,0,0,1,4.4-10.89c2.2-3.1,4.881-5.614,9.028-6.658.508,1.467.931,2.652,1.3,3.7-.282.508-.367.959-.621,1.128-5.642,3.329-8.04,8.577-9.2,14.783-1.439,7.758-.48,15.376.931,22.965,2.737,14.7,7.984,28.551,14.36,42.036a280.29,280.29,0,0,0,23.36,39.836c2.285,3.273,4.909,4.853,8.859,4.824,9.592-.113,19.184-.028,28.776-.056a23.763,23.763,0,0,0,2.821-.226,6.03,6.03,0,0,0,4.683-2.765c1.862-2.821,3.922-5.53,5.783-8.351,12.808-19.382,23.388-39.836,30.1-62.208a110.41,110.41,0,0,0,4.768-25.983,36.034,36.034,0,0,0-2.088-15.517c-1.439-3.583-3.385-6.715-6.884-8.633A17.515,17.515,0,0,1,144.9,9.391c.48-1.326.931-2.511,1.5-4.034,3.893.705,6.517,2.99,8.689,5.84A28.229,28.229,0,0,1,160.335,25.3a80.545,80.545,0,0,1-1.721,26.886c-4.063,18.507-11.313,35.8-20.482,52.305-4.288,7.73-9.113,15.122-13.711,22.683-.846,1.411-1.664,2.821-2.765,4.74a17.337,17.337,0,0,0,3.7.282c13.937-2.511,27.507-6.094,39.779-13.485a56.758,56.758,0,0,0,8.153-6.009c5.135-4.542,8.548-9.987,7.928-17.238a7.06,7.06,0,0,1,.31-1.523c1.157-.339,2.483-.705,4.063-1.157a18.166,18.166,0,0,1-.141,11.37,29.6,29.6,0,0,1-8.492,12.442c-5.755,5.276-12.47,8.971-19.636,11.99a139.538,139.538,0,0,1-32.5,8.943c-2.765.451-5.9.339-8.21,1.636s-3.78,4.063-5.614,6.207q-5.374,6.178-10.721,12.357c-.959,1.128-1.918,2.257-3.019,3.555a9.536,9.536,0,0,0,1.241,1.89c7,6.63,14.473,12.611,23.021,17.1a65.5,65.5,0,0,0,10.382,4.316,20.79,20.79,0,0,0,16.617-1.185c.959,1.241,1.834,2.342,2.765,3.527-2.229,2.483-4.909,3.216-7.7,3.7a31.883,31.883,0,0,1-16.081-1.777,63.88,63.88,0,0,1-16.391-8.689c-4.994-3.639-9.733-7.674-14.586-11.539-1.016-.818-2-1.665-2.934-2.454-2.313.536-3.555,2.313-5.078,3.639A121.031,121.031,0,0,1,70.93,182.981a60.149,60.149,0,0,1-15.376,6.856,31.313,31.313,0,0,1-12.837.762c-3.019-.451-4.316-1.1-7.646-3.752.875-1.1,1.749-2.2,2.737-3.47,7.533,3.921,14.783,2.483,21.893-.536a81.85,81.85,0,0,0,17.8-10.777,104.765,104.765,0,0,0,11.567-10.1,8.444,8.444,0,0,0-.931-2.088c-5.727-6.743-11.482-13.429-17.238-20.144C70.648,139.534,70.338,139.308,70.282,139.28Zm8.294.762c3.893,6.432,11.116,14.388,15.15,16.786,4.8-4.852,9.62-9.761,13.4-15.573.141-.226-.113-.677-.226-1.213Z" transform="translate(-0.007 -3.8)"/>
  <path id="Path_98" data-name="Path 98" class="cls-1" d="M247.484,125.849c-1.185.959-2.172,1.749-3.5,2.821-1.213-1.27-2.37-2.4-3.47-3.611-8.012-8.887-17.661-15.178-29.313-18-24.121-5.84-44.406.931-61.051,19.156-1.27,1.382-2.4,2.878-3.809,4.6-1.3-.762-2.511-1.467-3.583-2.116,0-.677-.141-1.129.028-1.382q15.827-22.217,42.742-26.661c18-2.99,34.25,1.382,48.976,11.877a61.363,61.363,0,0,1,11.087,10.382C246.27,123.761,246.778,124.748,247.484,125.849Z" transform="translate(-102.447 -71.592)"/>
  <path id="Path_99" data-name="Path 99" class="cls-1" d="M538.112,317.247a16.39,16.39,0,0,1-2.539-.31,1.83,1.83,0,0,1-1.411-2.116,8.028,8.028,0,0,1,.339-1.636c2.172-7.279,2.37-14.727,1.862-22.259-.113-1.862-.2-3.7-.31-5.727,1.354-.48,2.539-.875,3.809-1.3,2.37,4.232,1.749,8.6,1.834,12.837C541.808,305.877,540.792,311.322,538.112,317.247Z" transform="translate(-383.454 -203.801)"/>
  <path id="Path_100" data-name="Path 100" class="cls-1" d="M106.342,296.6c0,1.185.056,2.454,0,3.724-.395,7.307-.141,14.558,1.975,21.667.875,2.934.339,3.385-3.7,3.922a13.328,13.328,0,0,1-1.157-2.285c-2.511-7.984-2.765-16.166-2.2-24.432C101.461,295.783,101.969,295.557,106.342,296.6Z" transform="translate(-72.518 -212.524)"/>
  <path id="Path_101" data-name="Path 101" class="cls-1" d="M200.5,497.716c-.564,1.806-.931,2.99-1.27,4.119-7.674-.48-20.849-8.012-26.632-15.235.931-.987,1.862-2.031,3.047-3.3A67.377,67.377,0,0,0,200.5,497.716Z" transform="translate(-123.908 -346.946)"/>
  <path id="Path_102" data-name="Path 102" class="cls-1" d="M414.436,488.3c1.241,1.354,2.059,2.313,2.68,2.991-.282.987-.254,1.467-.48,1.693-6.348,6.009-13.937,9.874-22.147,12.611a6.343,6.343,0,0,1-2-.085c-.31-1.3-.621-2.652-.987-4.232A67.837,67.837,0,0,0,414.436,488.3Z" transform="translate(-281.051 -350.535)"/>
  <path id="Path_103" data-name="Path 103" class="cls-1" d="M100.175,613.545c-.734-1.467-1.382-2.737-1.975-3.922,1.128-1.834,2.6-2.144,4.655-1.693.423.79.9,1.749,1.354,2.6C103.476,612.473,101.98,612.925,100.175,613.545Z" transform="translate(-70.498 -436.283)"/>
  <path id="Path_104" data-name="Path 104" class="cls-1" d="M94.864,567.6c.762,1.975,1.241,3.526-.113,4.542a3.344,3.344,0,0,1-3.047.254c-1.608-.987-1.5-2.68-.649-4.627C92.212,567.741,93.425,567.685,94.864,567.6Z" transform="translate(-64.933 -407.463)"/>
  <path id="Path_105" data-name="Path 105" class="cls-1" d="M16.178,275.5c1.241,1.128,2.285,2.059,3.3,2.991C17,282.525,17,282.525,13.3,279.506a12.268,12.268,0,0,1,.9-1.834A25.569,25.569,0,0,1,16.178,275.5Z" transform="translate(-9.55 -197.771)"/>
  <path id="Path_106" data-name="Path 106" class="cls-1" d="M48.912,250.793c-1.552,1.157-2.511,1.918-3.752,2.849-1.1-1.27-2.031-2.313-3.16-3.639,1.3-1.072,2.4-1.975,3.78-3.1C46.8,248.17,47.671,249.242,48.912,250.793Z" transform="translate(-30.153 -177.24)"/>
  <path id="Path_107" data-name="Path 107" class="cls-1" d="M279.726,53.7c1.1.846,2.2,1.721,3.583,2.765-1.044,1.326-1.918,2.4-3.019,3.809-1.185-.875-2.172-1.608-3.075-2.257C276.82,55.788,278.09,54.828,279.726,53.7Z" transform="translate(-198.956 -38.545)"/>
  <path id="Path_108" data-name="Path 108" class="cls-1" d="M245.28,29.4c1.072.762,2.229,1.608,3.639,2.6-1.016,1.411-1.834,2.567-2.737,3.837-1.354-.818-2.426-1.467-3.583-2.144A4.791,4.791,0,0,1,245.28,29.4Z" transform="translate(-174.159 -21.101)"/>
  <path id="Path_109" data-name="Path 109" class="cls-1" d="M631.045,280.463c-1.411.846-2.483,1.5-3.78,2.257-.931-1.016-1.749-1.947-2.765-3.075,1.044-1.185,1.975-2.229,2.85-3.244C629.437,276.964,630.086,278.488,631.045,280.463Z" transform="translate(-448.317 -198.417)"/>
  <path id="Path_110" data-name="Path 110" class="cls-1" d="M544.124,612.638c-1.1-.649-2.313-1.354-3.724-2.2.677-1.411,1.185-2.511,1.806-3.837,1.411.423,2.624.79,3.893,1.157A5.026,5.026,0,0,1,544.124,612.638Z" transform="translate(-387.943 -435.46)"/>
  <path id="Path_111" data-name="Path 111" class="cls-1" d="M479.307.383V4.531c-1.5.677-2.99,1.185-4.034-.226a3.429,3.429,0,0,1-.508-2.99C475.667-.322,477.388-.209,479.307.383Z" transform="translate(-340.702 0.016)"/>
  <path id="Path_112" data-name="Path 112" class="cls-1" d="M593.5,250.934c1.185-1.523,2.031-2.652,3.1-4.034,1.326,1.072,2.4,1.947,3.752,3.047-1.044,1.326-1.918,2.426-2.906,3.7C596.152,252.74,595.136,252.035,593.5,250.934Z" transform="translate(-426.063 -177.24)"/>
  <path id="Path_113" data-name="Path 113" class="cls-1" d="M205.3,15.042c.564-1.3.987-2.285,1.411-3.216,2.031-.875,3.357.056,4.6,1.27C209.7,17.609,209.7,17.609,205.3,15.042Z" transform="translate(-147.382 -8.238)"/>
  <path id="Path_114" data-name="Path 114" class="cls-1" d="M401.945,32.9c-1.326.846-2.37,1.5-3.752,2.37-.931-1.3-1.749-2.4-2.793-3.837,1.5-.987,2.652-1.777,4.119-2.737C400.422,30.223,401.1,31.465,401.945,32.9Z" transform="translate(-283.851 -20.599)"/>
  <path id="Path_115" data-name="Path 115" class="cls-1" d="M541.9,484.6c1.805-.564,2.99-.931,4.147-1.3a4.817,4.817,0,0,1,1.27,4.994c-1.185.141-2.426.282-4.006.451C542.859,487.532,542.492,486.347,541.9,484.6Z" transform="translate(-389.02 -346.946)"/>
  <path id="Path_116" data-name="Path 116" class="cls-1" d="M551.031,525.846c1.3-.254,2.652-.508,4.4-.846.141,1.721.254,3.1.339,4.429C550.89,530.7,550.806,530.614,551.031,525.846Z" transform="translate(-395.528 -376.881)"/>
  <path id="Path_117" data-name="Path 117" class="cls-1" d="M364.273,59.571c-1.185-1.3-2.116-2.342-3.273-3.611,1.326-1.1,2.426-2.031,3.809-3.16,1.044,1.27,1.947,2.313,3.1,3.7C366.614,57.568,365.57,58.471,364.273,59.571Z" transform="translate(-259.156 -37.899)"/>
  <path id="Path_118" data-name="Path 118" class="cls-1" d="M435.006,16.956c-.733-1.467-1.27-2.567-1.806-3.639,4.063-3.075,4.57-2.906,5.727,2.144C437.714,15.912,436.444,16.391,435.006,16.956Z" transform="translate(-310.987 -8.092)"/>
  <path id="Path_119" data-name="Path 119" class="cls-1" d="M556.065,568.556c-.141,1.749-.254,3.131-.4,4.881a20.808,20.808,0,0,1-3.865-.762c-.423-.169-.705-1.241-.705-1.89C551.156,568.612,551.862,568.246,556.065,568.556Z" transform="translate(-395.624 -408.08)"/>
  <path id="Path_120" data-name="Path 120" class="cls-1" d="M98.2,488.757a21.428,21.428,0,0,1,.367-3.273,1.874,1.874,0,0,1,2.511-1.411c1.834.423,2.426,1.27,2.172,3.132-.169,1.269-.79,2.031-2.116,1.975C100.259,489.123,99.385,488.926,98.2,488.757Z" transform="translate(-70.498 -347.437)"/>
  <path id="Path_121" data-name="Path 121" class="cls-1" d="M97.347,526.062c-.282,1.749-.48,2.793-.705,4.119H92.1c.141-1.721.254-3.1.367-4.881C94.16,525.554,95.485,525.751,97.347,526.062Z" transform="translate(-66.118 -377.097)"/>
  <path id="Path_122" data-name="Path 122" class="cls-1" d="M169.281.4c4.627.31,4.627.31,3.668,4.514C168.632,5.619,168.519,5.45,169.281.4Z" transform="translate(-121.266 -0.283)"/>
  <path id="Path_123" data-name="Path 123" class="cls-1" d="M84.086,228.316c.254,2.342-.621,3.865-1.918,5.558-1.777-.762-2.229-2.257-2.567-3.95C80.728,228.8,81.829,227.667,84.086,228.316Z" transform="translate(-57.145 -163.762)"/>
  <path id="Path_124" data-name="Path 124" class="cls-1" d="M566.06,226.2c1.749.846,2.849,1.382,4.316,2.116-.705,1.411-1.3,2.624-2.144,4.345A8.715,8.715,0,0,1,566.06,226.2Z" transform="translate(-406.353 -162.379)"/>
  <path id="Path_125" data-name="Path 125" class="cls-1" d="M109.8,457.8l.226-.4.169.451Z" transform="translate(-78.825 -328.353)"/>
</svg>
