<svg id="Group_30" data-name="Group 30" xmlns="http://www.w3.org/2000/svg" viewBox="0 0 193.53 193.255">
  <defs>
    <style>
      .cls-1 {
        fill: #ffce00;
      }
    </style>
  </defs>
  <path id="Path_83" data-name="Path 83" class="cls-1" d="M180.9,126.092a36.484,36.484,0,0,1-10.268.262c-.378-.669-.7-.989-.7-1.309-.058-.931-.029-1.891-.029-3.083,1.8-.436,3.462-.814,5.323-1.251,1.018-3.694.7-7.476.175-11.432-1.833-.378-3.491-.727-5.352-1.105v-4.247c1.745-.378,3.4-.756,4.887-1.105,1.018-4.683,1.367-46.833.785-91.484-.029-1.687-.262-3.374-.407-5.294a32.915,32.915,0,0,0-4.247-.524q-28.8-.087-57.6-.087a20.745,20.745,0,0,0-2.327.087c-6.778.7-11.432,5.44-11.665,12.246-.2,5.992-.058,12.014-.087,18.035,0,1.891-.145,3.811-.2,5.469-1.658,1.367-3.054,1.338-4.829.2-.087-1.309-.233-2.822-.233-4.334-.029-5.614.058-11.257-.058-16.871a21.925,21.925,0,0,0-.785-5.7c-1.6-5.41-5.527-8.232-10.966-9.017a27.123,27.123,0,0,0-4.072-.087h-54.1c-1.92,0-3.869-.32-5.73.582-1.4,2.094-.96,4.48-.96,6.778q-.044,27.052-.029,54.1c0,9.687-.029,19.4.029,29.089,0,2.094-.32,4.276.814,6.545,1.774,1.105,3.956.727,6.021.727q21.249.087,42.469.058c3.287,0,6.6-.029,9.89.029a36.018,36.018,0,0,1,4.072.495v4.072c-2.211,1.222-4.392.756-6.487.756q-24.74.044-49.451.029c-2.094,0-4.218.087-6.4.145a21.22,21.22,0,0,0-.233,11.81c5.44,1.134,10.879.029,16.115.7,1.658,1.309,1.164,2.851.873,4.334-1.687,1.251-15.417,1.4-22.02.233-1.076-1.833-.7-4.014-.727-6.109-.087-10.676-.145-21.322-.145-32-.029-16.871,0-33.743-.029-50.614,0-2.3.32-4.654-.844-7.127H6.4c-1.484,1.774-.989,3.782-.989,5.643q-.044,29.1,0,58.177c0,11.054,0,22.107.058,33.161,0,1.891-.436,3.869,1.047,6.05,1.4.116,3.083.407,4.771.407,6.2.058,12.421,0,18.617.029,1.716,0,3.4.233,5.265.349v4.189a6.5,6.5,0,0,1-1.833.669q-15.4.044-30.834,0a4.929,4.929,0,0,1-1.571-.582c-1.28-1.8-.756-3.811-.785-5.7C.087,118.732.087,104.944.058,91.185Q.015,61.341,0,31.35c0-2.094.145-4.189.233-6.6,3.927-.233,7.534-.465,11.286-.7C13.235,16.137,11.2,8.312,12.857.4,14.69.283,16.377.08,18.064.08,38.426.051,58.788.138,79.15.022c6.138-.029,11.432,1.629,15.708,6.167A11.39,11.39,0,0,0,96.6,7.439a2.941,2.941,0,0,0,.7-.349c4.916-5.41,11.054-7.185,18.268-7.1,19.373.233,38.775.087,58.177.087h6.6a24.79,24.79,0,0,1,.669,3.549c.087,4.654.029,9.308.058,13.963,0,1.92.145,3.811.2,5.76,3.578,2.065,7.5.349,10.792,1.484,1.425,1.891,1.047,3.9,1.047,5.789q.174,23.256.262,46.542.087,27.358.058,54.687c0,2.094.436,4.247-.611,6.2-3.869,1.164-16.261,1.338-22.718.32-.116-1.193-.2-2.473-.32-3.782a5.92,5.92,0,0,1,1.658-.785c3.287-.087,6.574-.058,9.89-.145,1.92-.058,3.869.349,6.021-.785a19.786,19.786,0,0,0,.7-3.054c.145-1.542.058-3.112.058-4.654q-.044-43.938-.116-87.848c0-2.3.436-4.654-.96-7.127h-5.178a25.48,25.48,0,0,0-.756,3.2,37.942,37.942,0,0,0-.058,4.072q.044,41.015.029,82.03C181.135,121.554,180.989,123.648,180.9,126.092Z" transform="translate(0 0.01)"/>
  <path id="Path_84" data-name="Path 84" class="cls-1" d="M171.623,255.587c3.694-1.774,5.352-4.48,5.294-8.407-.087-5.032,0-10.065,0-15.126V183.8c0-1.745.029-3.491.058-5.236.058-6.429,6.109-10.85,10.734-10.966,6.341-.116,11.432,3.694,12.392,9.832a38.412,38.412,0,0,1,.32,5.789c.029,7.156,0,14.341.029,21.526,0,1.891-.32,3.869.989,5.847,1.891.349,3.607-.465,5.556-1.367.262-1.571.553-3.229.844-4.77,5.323-.814,25.54-1.076,43.226-.582a31.866,31.866,0,0,1,3.345.436,7.125,7.125,0,0,1,.495,1.862,18.243,18.243,0,0,1-.262,2.531,32.228,32.228,0,0,1-3.985.465c-6.021.058-12.014,0-18.035.058-1.28,0-2.531.2-4.567.378,2.153,1.6,3.752,2.589,5.149,3.84a43.463,43.463,0,0,1,3.432,3.869c1.8-.349,3.491-.814,5.207-.989,7.156-.756,12.77,3.752,12.857,10.937.175,12.392.291,24.813-.349,37.2a109.331,109.331,0,0,1-6.6,31.154c-1.513,4.247-2.705,8.465-2.327,13.032a11.5,11.5,0,0,1-.262,2.24c-1.891,1.687-4.131,1.105-6.167,1.134-13.555.058-27.14.029-40.695.029-3.694,0-7.359.029-11.054-.029-1.513-.029-3-.291-4.858-.495a31.587,31.587,0,0,1-.349-5.323c.378-3.84-1.222-6.6-3.956-9.163-5.469-5.207-10.734-10.646-16.057-16l-27.547-27.547a34.575,34.575,0,0,1-3.171-3.374,5.923,5.923,0,0,1,.233-7.5c7.1-8.552,17.8-8.261,24-1.92,4.189,4.305,8.668,8.319,13.032,12.421C169.5,253.987,170.576,254.772,171.623,255.587Zm16.348,50.585a21.462,21.462,0,0,0,3.752.669q22.078.087,44.157,0a16.168,16.168,0,0,0,3.316-.611c1.193-4.247,2.065-8,3.258-11.606a125.789,125.789,0,0,0,6.981-39.851c.029-8.145.029-16.261.029-24.405a22.81,22.81,0,0,0-.175-3.462,6.112,6.112,0,0,0-12.159.378c-.2,1.891-.262,3.811-.378,5.963h-4.916c-.058-2.385-.087-4.509-.116-6.6a44.184,44.184,0,0,0-.116-5.207,6.318,6.318,0,0,0-5.789-5.585,6.1,6.1,0,0,0-6.632,5.207,47.19,47.19,0,0,0-.378,5.789c-.145,2.094.465,4.276-.9,6.516-1.164-.058-2.414-.146-3.985-.233-.145-1.978-.32-3.694-.378-5.41-.087-1.949.058-3.869-.116-5.818-.32-3.782-2.938-6.458-6.167-6.516a6.786,6.786,0,0,0-6.632,6.109c-.233,1.92-.116,3.869-.2,5.789-.087,1.891.349,3.869-.873,5.789h-3.782c-.2-1.251-.436-2.182-.495-3.142-.087-1.745-.058-3.491-.058-5.236,0-13.555.029-27.111-.029-40.7a27.106,27.106,0,0,0-.582-6.341,6.2,6.2,0,0,0-6.574-4.6,6.043,6.043,0,0,0-5.672,5.614,41.27,41.27,0,0,0-.116,4.654v51.138c0,4.276-.116,8.523.029,12.8.2,5.847-2.705,9.919-7.127,13.177a5.05,5.05,0,0,1-6.458,0,34.52,34.52,0,0,1-3.491-3.054c-4.509-4.247-8.9-8.61-13.5-12.77-5.527-5-10.821-4.305-15.766,1.92.436,2.007,2.211,3.054,3.52,4.392q20.115,20.158,40.288,40.259C186.226,297.649,186.226,297.678,187.971,306.172Zm28.041-92.589c2.269-.727,4.043-2.094,6.254-3.694-2.007-1.018-3.752-.727-5.352-.64-1.716.087-3.723-.756-5.44,1.047C213.162,211.488,214.558,212.507,216.012,213.583Z" transform="translate(-92.24 -118.838)"/>
  <path id="Path_85" data-name="Path 85" class="cls-1" d="M151.117,83.826c1.134,1.774,1.193,3.2.2,4.6-4.654.64-40.346.756-46.367.116-1.047-1.28-.785-2.734-.233-4.189C108.939,83.361,137.707,83.041,151.117,83.826Z" transform="translate(-73.916 -59.127)"/>
  <path id="Path_86" data-name="Path 86" class="cls-1" d="M104.7,213.545c.087-1.891.145-3.171.2-4.712,5.41-.844,10.617-.291,15.8-.407,5.032-.087,10.065-.029,15.126-.029,5.207,0,10.414.058,15.33.058,1.454,1.716,1.425,3.142.582,4.567-.378.2-.7.524-1.018.524q-10.472.131-20.915.175-9.294.044-18.617,0C109.267,213.778,107.347,213.661,104.7,213.545Z" transform="translate(-74.244 -147.743)"/>
  <path id="Path_87" data-name="Path 87" class="cls-1" d="M104.5,297.192c.116-1.978.2-3.258.291-4.451,4.567-.814,38.193-1.047,46.455-.349,1.251,1.28,1.164,2.705.349,4.6-4.916.989-10.094.291-15.242.407-5.207.116-10.414.058-15.621.029C115.525,297.366,110.347,297.541,104.5,297.192Z" transform="translate(-74.102 -207.043)"/>
  <path id="Path_88" data-name="Path 88" class="cls-1" d="M152.1,251.087a16.661,16.661,0,0,1,.553,2.851,2.162,2.162,0,0,1-1.949,2.443,24.071,24.071,0,0,1-2.909.116H108.321c-3.171-.146-3.4-.524-2.909-4.858,5.061-1.047,10.268-.378,15.446-.495,5.032-.116,10.065-.029,15.1-.029C141.162,251.087,146.369,251.087,152.1,251.087Z" transform="translate(-74.608 -178.013)"/>
  <path id="Path_89" data-name="Path 89" class="cls-1" d="M152.174,130.535c-14.544.145-28.827.058-43.109.029a32.594,32.594,0,0,1-3.665-.436v-4.276a25.715,25.715,0,0,1,3.985-.64c12.944-.058,25.889-.029,38.833-.029.378,0,.785,0,1.164.029C152.553,125.415,152.873,125.91,152.174,130.535Z" transform="translate(-74.741 -88.76)"/>
  <path id="Path_90" data-name="Path 90" class="cls-1" d="M396.525,213.144a21.2,21.2,0,0,1-.233-2.473,11.026,11.026,0,0,1,.465-1.891c5.149-.989,10.356-.291,15.533-.436,5.032-.116,10.094-.116,15.126,0,5.207.116,10.414-.465,15.882.407.116,1.425.2,2.705.32,4.218a15.06,15.06,0,0,1-2.909.669q-20.639.087-41.306.029A15.48,15.48,0,0,1,396.525,213.144Z" transform="translate(-281.014 -147.662)"/>
  <path id="Path_91" data-name="Path 91" class="cls-1" d="M397.1,89V84.956c.611-.291.931-.611,1.28-.611q21.162-.087,42.295-.145a25.3,25.3,0,0,1,2.531.233c1.542,1.6,1.105,3.054.64,4.451C439.424,89.7,403.616,89.814,397.1,89Z" transform="translate(-281.589 -59.704)"/>
  <path id="Path_92" data-name="Path 92" class="cls-1" d="M444.194,251.32c-.145,1.542-.262,2.822-.349,3.985-4.858.9-26.645,1.222-43.2.669a25.29,25.29,0,0,1-3.549-.553v-4.305c1.483-.174,2.792-.465,4.1-.494C419.789,250.069,438.58,250.36,444.194,251.32Z" transform="translate(-281.589 -177.519)"/>
  <path id="Path_93" data-name="Path 93" class="cls-1" d="M151.487,168.336c.087,1.338.145,2.618.233,4.131a15.008,15.008,0,0,1-2.938.64q-20.944.044-41.888,0a8.341,8.341,0,0,1-1.658-.32c-1.222-1.4-1.047-2.822-.291-4.392a5.192,5.192,0,0,1,1.571-.494q21.249-.044,42.469-.029A15.1,15.1,0,0,1,151.487,168.336Z" transform="translate(-73.994 -119.028)"/>
  <path id="Path_94" data-name="Path 94" class="cls-1" d="M443.537,167.909c-.145,1.978-.233,3.229-.32,4.421-4.538.814-39.037.989-46.135.291-1.309-1.222-.96-2.705-.465-4.305a5.334,5.334,0,0,1,1.571-.553c6.4-.058,12.8-.116,19.2-.116,6.6-.029,13.177-.029,19.78,0C439.028,167.676,440.919,167.792,443.537,167.909Z" transform="translate(-280.931 -118.862)"/>
  <path id="Path_95" data-name="Path 95" class="cls-1" d="M444.12,125.982v3.84a7.87,7.87,0,0,1-1.716.727c-1.542.145-3.083.2-4.625.2q-17.41.044-34.79,0c-1.891,0-3.869.378-5.789-.873v-3.694a7.091,7.091,0,0,1,1.891-.669q20.856-.087,41.742-.116A21.368,21.368,0,0,1,444.12,125.982Z" transform="translate(-281.66 -88.92)"/>
  <path id="Path_96" data-name="Path 96" class="cls-1" d="M248.884,421.465h-5.818c-1.193-1.571-1.4-3.2-.175-4.276,1.542-1.4,3.694-1.135,5.411-.32C250.048,417.683,249.524,419.4,248.884,421.465Z" transform="translate(-171.654 -295.13)"/>
</svg>
