<svg xmlns="http://www.w3.org/2000/svg" viewBox="0 0 191.282 203.976">
  <defs>
    <style>
      .cls-1 {
        fill: #ffce00;
      }
    </style>
  </defs>
  <g id="Group_31" data-name="Group 31" transform="matrix(0.978, -0.208, 0.208, 0.978, 0, 29.01)">
    <path id="Path_128" data-name="Path 128" class="cls-1" d="M27.84,4.977c-.162,2.288-.35,3.849-.377,5.411-.592,49.907-.215,136.127.646,140.649a16.965,16.965,0,0,0,2.961.565c2.342.108,4.657.054,7,.054q44.7,0,89.369-.027c2.127,0,4.28.323,6.434-.565,1.131-1.83.754-3.849.754-5.761q.04-19.906.027-39.839c0-3.769-.027-7.537,0-11.306,0-1.238.135-2.477.215-3.9a7.6,7.6,0,0,1,2.046-.565c1.83.081,2.423.619,2.557,2.073.081.888.054,1.8.054,2.692V152.06c0,1.238-.188,2.45-.323,3.93-1.669.377-3.176.727-4.657,1.05-.242.323-.619.565-.673.834-.727,4.98-.377,9.987-.242,15.29,1.83.538,3.472,1,5.141,1.481.888,3.365.565,3.984-2.423,4.172-1.427.081-2.88.054-4.307.054H18.446c-1.965,0-3.957.027-5.922-.161-7.295-.7-12.14-5.787-12.49-13.055-.054-1.265-.027-2.5-.027-3.769Q.047,89.447.034,17.063c0-1.427-.054-2.88.054-4.307A13.626,13.626,0,0,1,12.524.078C13.95-.057,15.4.024,16.831.024q58.144,0,116.288.027c1.938,0,3.849.108,5.707.188a7.34,7.34,0,0,1,.619,1.857q.04,33.917,0,67.835a6.137,6.137,0,0,1-.565,1.75h-3.526c-1.158-1.938-.7-3.957-.7-5.9q-.04-26.932-.027-53.837c0-1.965-.081-3.9-.135-6.057a23.24,23.24,0,0,0-3.2-.808,35.108,35.108,0,0,0-3.769-.054Q80.964,5.031,34.382,5C32.443,4.977,30.478,4.977,27.84,4.977ZM21.568,151.521c1.292-2.853.915-5.222.915-7.51q.04-65.654.027-131.335c0-1.427.081-2.88-.054-4.307A24.786,24.786,0,0,0,21.649,5c-2.638-.027-5.115-.027-7.618-.054A9.016,9.016,0,0,0,4.96,14.264c.027.727-.027,1.427-.027,2.153q0,65.937,0,131.874c0,1.588.162,3.176.269,4.872,2.907-.538,5.464-1.211,8.076-1.481C15.942,151.44,18.634,151.575,21.568,151.521Zm106.624,5.572c-2.369-.754-4.522-.485-6.622-.511q-51.926-.04-103.878,0c-1.427,0-2.88-.054-4.307.054a10.25,10.25,0,0,0-3.123.646,8.513,8.513,0,0,0-5.222,8.587,8.126,8.126,0,0,0,6,7.456,28.372,28.372,0,0,0,6.918.727q51.926.081,103.878.027c1.077,0,2.153.054,3.23-.054a23.458,23.458,0,0,0,2.934-.646,6.04,6.04,0,0,0-.242-5.626c-1.938-.054-3.876-.188-5.814-.188-17.928-.027-35.882,0-53.81-.027-1.911,0-3.9.35-5.6-.377a3.5,3.5,0,0,1,.511-4.576h5.518c17.928,0,35.882.027,53.81-.027,1.911,0,3.957.511,5.868-.834C128.193,160.243,128.193,158.735,128.193,157.093Z" transform="translate(0 0)"/>
    <path id="Path_129" data-name="Path 129" class="cls-1" d="M93.222,38.04c-1.4.081-2.719.188-4.28.269C85.254,25.173,77.879,15.186,65.685,9.264a40.32,40.32,0,0,0-28.264-3.1A42.379,42.379,0,0,0,39.843,89.1c19.947,3.661,42.235-7.618,49.1-32.625,1.158-.108,2.476-.242,3.661-.377.35.646.727,1,.646,1.265a43.413,43.413,0,0,1-1.561,6.191C85.47,79.629,74.029,90.154,57.151,93.6,27.487,99.657,3.4,79.037.353,53.141-2.742,26.707,14.943,6.519,36.128,1.35a47.343,47.343,0,0,1,57.094,34.7A12.024,12.024,0,0,1,93.222,38.04Z" transform="translate(33.355 33.587)"/>
    <path id="Path_130" data-name="Path 130" class="cls-1" d="M70.25,45.217c-1.373,15.424-19.3,28.211-37.632,26.757A35.553,35.553,0,0,1,.019,35.042,35.832,35.832,0,0,1,36.871.021c16.2.592,32.948,13.621,33.164,26.811-1.184.054-2.369.108-3.742.188-.754-1.534-1.4-2.961-2.127-4.388C59.886,14.207,53.318,8.419,44.085,6.051,25.4,1.259,9.737,13.238,5.78,28.608A31.1,31.1,0,0,0,30.733,66.725c15.236,2.719,27.107-5.545,32.625-15.8.673-1.265,1.238-2.584,1.857-3.876C66.374,44.732,66.374,44.732,70.25,45.217Z" transform="translate(44.591 44.903)"/>
    <path id="Path_131" data-name="Path 131" class="cls-1" d="M61.67,16.088c-20.485-.027-40.916,0-61.67-.027V11.7c1.965-1.023,3.984-.592,5.922-.592,16.689-.027,33.379,0,50.068-.027,6.407,0,5.061.565,9.556-4.388,1.938-2.127,3.9-4.172,5.868-6.245,3.042-.135,6.057-.377,9.1-.4C85.708-.036,90.877.018,95.83.018c.888,1.346.161,2.019-.4,2.665-2.127,2.45-4.28,4.845-6.38,7.295-.915,1.077-1.75,2.207-2.719,3.446,2.853,4.738,7.187,8.1,10.148,12.436-.4,1.346-1.4,1.157-2.234,1.157-6.649.027-13.271-.054-19.92.054a5.987,5.987,0,0,1-5.061-2.4C66.839,21.795,64.281,19.022,61.67,16.088ZM85.789,5.67C81.7,4.217,78.01,4.782,74.376,5.105A2.457,2.457,0,0,0,73,5.886c-2.207,2.5-4.765,4.738-6.407,7.833,1,1.265,1.8,2.423,2.773,3.446,5.168,5.653,3.1,4.845,10.821,4.9,1.669,0,3.472.4,5.411-.861-2.153-2.719-4.092-5.168-6.084-7.726,1.131-1.373,2.153-2.584,3.149-3.822C83.636,8.443,84.578,7.2,85.789,5.67Z" transform="translate(78.986 67.464)"/>
    <path id="Path_132" data-name="Path 132" class="cls-1" d="M47.205,15.447c-2.53,1.023-4.442.888-5.841-1.4a15.5,15.5,0,0,0-1.615-2.154A19.865,19.865,0,0,0,5.024,27.21,19.774,19.774,0,0,0,20.017,44.223c7.726,1.992,14.105-.458,19.516-5.976A12.933,12.933,0,0,0,41.5,35.689c1.346-2.261,3.176-2.638,5.707-1.561-.323,3.9-2.88,6.434-5.357,8.883a23.159,23.159,0,0,1-16.474,6.837C11.107,49.956,1.9,39.727.313,29.121-1.706,15.528,6.208,4.195,19.156.642,29.816-2.212,44.3,4.76,47.205,15.447Z" transform="translate(55.872 55.992)"/>
    <path id="Path_133" data-name="Path 133" class="cls-1" d="M23.173,23c-2.88,3.311-6.38,4.119-10.283,4.038A12.581,12.581,0,0,1,3.845,23a13.6,13.6,0,0,1,.35-19.3A12.9,12.9,0,0,1,13.94.007c3.257.108,6.3.754,8.614,3.526-1.023,1.454-2.369,1.023-3.5,1.131a60.04,60.04,0,0,0-7.968.754,8.414,8.414,0,0,0-.861,15.909,20.106,20.106,0,0,0,5.249.754c2.315.161,4.63.161,6.945.242C22.58,22.3,22.688,22.511,23.173,23Z" transform="translate(66.984 67.475)"/>
  </g>
</svg>
