<svg id="Group_29" data-name="Group 29" xmlns="http://www.w3.org/2000/svg" viewBox="0 0 182.024 176.49">
  <defs>
    <style>
      .cls-1 {
        fill: #ffce00;
      }
    </style>
  </defs>
  <path id="Path_126" data-name="Path 126" class="cls-1" d="M205.015,117.924c2.3-5.5,4.27-10.564,5.255-16.011a69.836,69.836,0,0,0,.712-14.725,9.67,9.67,0,0,0-4.516-8.074,30.006,30.006,0,0,0-1.752,2.846,30.257,30.257,0,0,1-7.253,10.181c-2,1.724-2.436,3.941-2.956,6.24q-1.683,7.472-3.476,14.889a25.9,25.9,0,0,1-1.013,3.12c-1.341,3.695-1.779,3.8-5.392,1.177,1.259-6.049,4.187-11.851,4.16-18.638-5.638,1.451-10.783,3.366-16.312,3.011a42.6,42.6,0,0,1-15.327-4.215c-5.446,3.722-9.415,9.087-14.944,13.055-4.762-4.324-9.442-8.621-14.259-13-5.2,2.025-10.291,3.969-15.819,4.187-5.556.219-10.729-1.505-16.23-3.257-.958,3.667.657,6.678,1.341,9.743.684,3.011,1.779,5.912,2.655,8.813-.739,1.56-1.971,2.135-3.914,2.135a20.032,20.032,0,0,1-1.368-2.545A104.077,104.077,0,0,1,89.572,96.74a6.994,6.994,0,0,0-2.053-4.324,34.791,34.791,0,0,1-7.992-11.632,6.783,6.783,0,0,0-.958-1.232c-3.312,1.724-4.653,3.667-4.9,7.691a57.406,57.406,0,0,0,3.886,25.727c.547,1.341,1.067,2.71,1.587,4.051a2.012,2.012,0,0,1,0,.575,3.466,3.466,0,0,1-3.886,1.779c-.438-.766-1.067-1.642-1.505-2.6-4.571-9.853-5.775-20.281-5.009-30.955a15.086,15.086,0,0,1,4.735-9.607c1.149-1.149,2.408-2.19,3.8-3.476,0-2.655-.137-5.392.027-8.1.192-2.655.684-5.282,1.095-8.211-2.354-.246-4.27-.438-6.049-.629a3.6,3.6,0,0,1,.137-4.625h8.484c2.3-2.846,4.434-5.5,6.705-8.348-3.093-4.68-7.089-8.4-10.592-12.535-3.476-4.133-7.143-8.156-10.592-12.07a4.731,4.731,0,0,1,.356-.9.961.961,0,0,1,.493-.164c.164-.027.356-.055.547-.082l42.121-.164a7.773,7.773,0,0,0,.9-.192c.739-.848,1.752-1.888,2.627-3.011,14.478-18.228,42.559-18.365,57.256-.246.465.575.931,1.122,1.341,1.724a4.06,4.06,0,0,0,3.722,1.861c1.286-.027,2.545,0,3.832,0h38.016a4.443,4.443,0,0,1,.3.9,1.279,1.279,0,0,1-.164.52,1.669,1.669,0,0,1-.328.438q-10.058,11.536-20.144,23.045a3.14,3.14,0,0,0-.3.876c1.971,2.518,4.051,5.2,6.185,7.937,3.147.164,6.185.328,9.5.52v4.242c-2.135.356-4.215.684-6.514,1.067.411,2.929.9,5.583,1.095,8.265.192,2.545.027,5.091.027,7.8,1.177,1.122,2.381,2.19,3.531,3.312a15.538,15.538,0,0,1,4.981,10.072,62.771,62.771,0,0,1-5.556,31.967,16.527,16.527,0,0,1-1.259,1.943,12.2,12.2,0,0,1-2.08-.575A17.146,17.146,0,0,1,205.015,117.924ZM120.28,56.37a43.9,43.9,0,0,1,.3,4.707A9.8,9.8,0,0,1,110.92,70.3c-4.872.109-9.661-4.461-9.5-9.333.055-1.423,0-2.846,0-4.543-5.5-.684-10.893-.3-15.792-.3a8.4,8.4,0,0,0-1.259,1.15,7.241,7.241,0,0,0-.739,1.451,27.211,27.211,0,0,0-.848,15.628,28.767,28.767,0,0,0,27.479,22.5,29.116,29.116,0,0,0,28.519-21.211A13.122,13.122,0,0,0,137,64.225a17.431,17.431,0,0,0-12.453-8.019A22.888,22.888,0,0,0,120.28,56.37Zm44.037.328a5.485,5.485,0,0,0-1.587-.547c-8.129-.3-15.9,5.8-17.407,13.712a8.549,8.549,0,0,0,.055,3.23,28.956,28.956,0,0,0,27.561,23.784C189.47,97.479,206,82.946,202,61.79c-.356-1.916-.712-4-2.846-5.638-5.009-.027-10.428-.356-15.9.219,0,1.752.055,3.2,0,4.625a9.42,9.42,0,0,1-9.524,9.251,9.638,9.638,0,0,1-9.634-9.223A38.783,38.783,0,0,1,164.317,56.7Zm2.3-39.138c-4.324-8.649-17.051-12.918-24.933-12.617a31.23,31.23,0,0,0-16.941,5.392c-2.627,1.806-5.529,3.5-6.705,6.9,3.339,1.451,6.541,2.71,9.579,4.242a26.511,26.511,0,0,1,8.484,6.788c2.162,2.627,4.078,5.446,6.322,8.457,3.12-4.379,5.775-8.731,9.8-11.988C156.38,21.365,161.17,19.285,166.616,17.561Zm26,21.266C195.71,36.145,204.3,26.648,206.384,23.5c.137-.219-.109-.657-.164-1.013a3.816,3.816,0,0,0-1.04-.328c-11.112-.027-22.251-.411-33.336.082-12.891.575-22.361,9.5-25.727,20.39a54.032,54.032,0,0,0-1.013,5.5c3.8-3.23,6.815-6.049,10.1-8.512a27.869,27.869,0,0,1,12.015-4.954,31.548,31.548,0,0,1,12.508,0C183.941,35.625,187.992,37.294,192.617,38.827ZM92.528,39.1c1.505-.684,3.12-1.478,4.762-2.19a34.313,34.313,0,0,1,24.03-1.232,32.872,32.872,0,0,1,14.971,9.661c.766.821,1.232,2.326,2.846,1.888.109-.192.274-.356.274-.52C138.152,35.05,127.588,22.46,111.6,22.132c-10.373-.219-20.773-.055-31.146-.027-.848,0-1.861-.137-2.217,1.013A105.589,105.589,0,0,0,92.528,39.1Zm57.284,14.971c5.775-3.038,11.714-3.175,17.763-3.093,8.348.109,16.7.027,25.07,0,1.013,0,2.19.3,2.9-.848-3.312-7.143-15.874-12.672-27.068-10.564a28.4,28.4,0,0,0-14.369,7.28C152.083,48.789,149.976,50.732,149.812,54.071Zm-14.779.137c-.575-3.175-1.4-4.6-4.406-7.308a28.407,28.407,0,0,0-16.066-7.5,28.7,28.7,0,0,0-17.9,3.558c-4.16,2.354-6.049,4.3-7.5,7.718,1.505.109,2.9.3,4.3.328,8.758.027,17.516.109,26.274-.027a27.84,27.84,0,0,1,13.247,2.627A10.843,10.843,0,0,0,135.032,54.208ZM132.569,94.66a63.97,63.97,0,0,0,9.47,8.813c4.653-2.874,8.156-6.377,9.47-9.2-3.038-3.941-6.021-7.8-9.278-11.988-1.533,2.19-2.846,4.3-4.379,6.268S134.567,92.388,132.569,94.66ZM178.139,60.5a4.632,4.632,0,0,0-4.625-4.324,4.834,4.834,0,0,0-4.352,4.68,4.684,4.684,0,0,0,4.68,4.3A4.543,4.543,0,0,0,178.139,60.5Zm-62.648.082a4.788,4.788,0,0,0-4.6-4.406,4.578,4.578,0,0,0-4.352,4.6,4.516,4.516,0,0,0,4.543,4.379A4.658,4.658,0,0,0,115.491,60.585Z" transform="translate(-48.3 0.051)"/>
  <path id="Path_127" data-name="Path 127" class="cls-1" d="M94.1,509.389A133.309,133.309,0,0,1,72.145,491.9H66.151c-13.3,0-26.6-.027-39.932.027a15.163,15.163,0,0,1-7.335-1.642C13.712,487.63,8.43,485.167,3.2,482.594c-.931-.465-1.779-1.067-3.2-1.971,9-4.023,16.8-9.141,26.192-11.659.383-1.095.821-2.463,1.4-3.777a19.941,19.941,0,0,1,1.971-3.886c2.19-2.983,5.419-4.023,8.484-1.478a25.431,25.431,0,0,0,2.135,1.505c5.665-3.941,5.748-3.969,11.331,0,.958-.629,1.943-1.4,3.011-2.025,2.408-1.4,4.571-1.259,6.459.712a19.1,19.1,0,0,1,2.929,4.516,43.334,43.334,0,0,1,1.752,4.6,11.978,11.978,0,0,0,2.217.411q26.521,0,53.041-.055a6.042,6.042,0,0,0,1.67-.52c.465-1.314.9-2.682,1.451-4a18.967,18.967,0,0,1,1.7-3.421c2.463-3.531,5.173-4,8.84-1.587.6.383,1.15.848,1.615,1.177,2.107-.958,3.941-2.162,5.966-2.655,2.381-.575,3.75,1.861,5.884,2.792.821-.575,1.7-1.259,2.6-1.806,2.819-1.7,5.173-1.451,7.253,1.095a26.818,26.818,0,0,1,2.874,5.228,20.219,20.219,0,0,1,.958,2.928c1.806,1.314,3.695.739,5.474.9a51.444,51.444,0,0,1,6.514.6,10.658,10.658,0,0,1,8.293,11.3,11.042,11.042,0,0,1-9.661,10.263,38.854,38.854,0,0,1-4.379.082c-15.847,0-31.721.082-47.568-.055a9.876,9.876,0,0,0-7.718,3.038A114.272,114.272,0,0,1,94.1,509.389ZM54.41,475.04c-1.04,3.75.109,6.651,1.259,9.524a3.416,3.416,0,0,0,3.421,2.244c3.093,0,6.185.027,9.278.027,19.487,0,38.974.027,58.46-.027,4.653,0,5.228-.52,6.486-4.872.6-2.107,1.259-4.187.356-6.432-.493-.219-.958-.629-1.451-.629q-36.62-.164-73.212-.219C57.612,474.657,56.189,474.9,54.41,475.04Zm106.439,11.413a39.136,39.136,0,0,0,10.866.219,5.8,5.8,0,0,0,5.173-5.446,5.666,5.666,0,0,0-4.406-6.049,16.1,16.1,0,0,0-9.962.246c-.657,3.476-1.259,6.651-1.834,9.853A8.651,8.651,0,0,0,160.848,486.453ZM93.876,503.039c7.28-4.352,10.674-7.225,12.617-10.674a5.314,5.314,0,0,0-1.478-.438q-11.372.041-22.771.109a.736.736,0,0,0-.493.219,4.215,4.215,0,0,0-.356.766C84.844,497.073,89.333,499.974,93.876,503.039ZM25.289,474.575a45.777,45.777,0,0,0-12.7,6.076c2.491,2,9.2,5.72,11.112,5.994a20.11,20.11,0,0,0,3.886-.246C26.794,482.375,26.11,478.708,25.289,474.575Zm6.1,1.067c-.9,2.9.328,5.611,1.2,8.265a4.686,4.686,0,0,0,1.916,2.463,3.7,3.7,0,0,0,4.27-.465c-.766-3.476-.712-7.2-2.025-10.592C33.856,474.712,33.856,474.712,31.392,475.643Zm117.879,10.373c4.133,1.067,5.2.766,6.24-2.19a35.61,35.61,0,0,0,1.451-6.35,2.15,2.15,0,0,0-2.025-2.682c-2.217-.328-3.832.219-4.105,1.7C150.2,479.638,149.764,482.841,149.271,486.015ZM42.915,474.986a15.748,15.748,0,0,0,.931,8.676c1.4,3.339,2.491,3.722,6.4,2.135-.657-3.5-1.314-7.034-2-10.811Zm94.889,11.03c4.379,1.15,5.145.848,6.459-2.545a12.313,12.313,0,0,0,.766-7.91,4.694,4.694,0,0,0-5.364,0C139.063,478.982,138.433,482.485,137.8,486.015Zm4.352-21.923c-1.888,1.122-2.326,2.846-2.244,5.173a28.269,28.269,0,0,0,3.257.192c.465-.027.876-.465,1.341-.712C144.345,466.857,144.126,465.105,142.155,464.093ZM43.462,468.91c1.943.821,3.394,1.04,4.844-.328-.383-1.779-.52-3.585-2.463-4.461C43.9,465.051,43.736,466.857,43.462,468.91Zm-11.03.328h4.324c.027-2.272-.328-3.969-2.6-5.227C32.816,465.571,31.776,466.884,32.432,469.238Zm96.175-.027h4.27c.3-2.463-.274-4.078-2.272-5.036A5.086,5.086,0,0,0,128.608,469.211Zm-71.488-5.228c-1.587,1.505-2.463,2.928-1.916,4.926a3.529,3.529,0,0,0,4.324-.137A5.061,5.061,0,0,0,57.119,463.983Zm99.131,5.228c-.629-2.408-.684-4.215-2.9-5.063-1.451,1.341-2.354,2.737-1.752,5.063Z" transform="translate(0 -332.898)"/>
</svg>
