<svg xmlns="http://www.w3.org/2000/svg" viewBox="0 0 168 140.88">
  <defs>
    <style>
      .cls-1 {
        fill: #ff9300;
      }

      .cls-2, .cls-3, .cls-4, .cls-6 {
        fill: none;
      }

      .cls-2 {
        stroke: #db0043;
      }

      .cls-2, .cls-4 {
        stroke-width: 4px;
      }

      .cls-3 {
        stroke-linejoin: round;
      }

      .cls-4 {
        stroke: #db00ed;
        stroke-linecap: round;
      }

      .cls-5, .cls-7 {
        stroke: none;
      }

      .cls-7 {
        fill: #a700ff;
      }
    </style>
  </defs>
  <g id="Group_605" data-name="Group 605" transform="translate(-270 -3995.298)">
    <g id="Group_33" data-name="Group 33" transform="translate(289.091 4004.963)">
      <path id="Path_61" data-name="Path 61" class="cls-1" d="M49.511,94.888c-3.176-.789-3.354-.789-4.5,1.48-4.084,8.089-8.109,16.218-12.153,24.327-1.7,3.393-3.374,6.807-5.051,10.2a5.436,5.436,0,0,1-1.223.256c-1.421-.079-2.111-.789-1.736-1.933a25.238,25.238,0,0,1,1.519-3.63c4.439-8.937,8.918-17.875,13.337-26.812.631-1.263,1.519-2.446,1.519-4.163-3.492-.572-6.886-.217-10.259-.276-3.413-.059-6.846-.02-10.259-.02H.7c-.829-2.762-.927-6.432-.335-11.325.986-.3,2.072-.631,3.1-.947.178-.276.434-.474.454-.691.1-1.44.2-2.881.2-4.321q.03-35.9.02-71.8c0-1.677-.375-3.433.592-4.992,3.334-.414,118.042-.414,121.692.02a16.314,16.314,0,0,1,.414,2.131c.079,1.3.039,2.624.039,3.946V76.954c0,1.559.059,3.117.1,4.794,1.421.454,2.624.848,3.985,1.3a64.15,64.15,0,0,1,.02,11.187c-4.794.138-9.233.059-13.692.079-4.6.02-9.214,0-13.811,0H90.193c-.769,1.578.178,2.525.671,3.512,4.479,9.076,9.016,18.131,13.515,27.187a26.744,26.744,0,0,1,1.361,2.841,13.277,13.277,0,0,1,.454,2.486,2.352,2.352,0,0,1-3.058.414c-6.018-12.114-11.976-24.248-18.112-36.263H81.808c-.118.414-.3.691-.237.868.434,1.085.888,2.19,1.421,3.236l13.554,27.168A29.579,29.579,0,0,1,98.006,129c.414,1.125-.178,1.894-1.559,2.131a6.456,6.456,0,0,1-1.381-.118c-2.072-3.946-3.828-8.188-6.116-11.976-3.788-.474-43.484-.434-46.878.039-2.308,3.65-3.985,7.793-6.116,11.838H33.53c-.986-1.519-.3-2.7.276-3.867l5.268-10.595c2.94-5.879,5.9-11.739,8.8-17.638A10.649,10.649,0,0,0,49.511,94.888ZM122.944,4.034c-1.776-.671-3.492-.414-5.169-.414Q65.482,3.59,13.208,3.6c-.927,0-1.835-.039-2.762.02-.75.039-1.5.217-2.21.316A9.636,9.636,0,0,0,7.7,8.394q-.03,34.714,0,69.428A16.466,16.466,0,0,0,7.743,79.8c.1.75.3,1.48.454,2.17a12.418,12.418,0,0,0,4.873.493q31.962.03,63.9,0a25.7,25.7,0,0,0,2.762-.059,15.108,15.108,0,0,0,2.072-.533c.789-2.624-.3-5.228.986-7.793,3.788,0,7.6-.079,11.4.02,3.887.1,7.813-.414,11.68.335.769,2.585-.2,5.169.73,7.458,2.6.612,10.437.888,14.659.493a7.964,7.964,0,0,0,1.677-.513c.434-3.157.73-68.8.335-75.939C123.221,5.336,123.063,4.7,122.944,4.034ZM3.9,90.291a17.765,17.765,0,0,0,5.386.375q54.394.03,108.809,0c2.229,0,4.459.02,6.708-.02a19.88,19.88,0,0,0,2.21-.276,3.575,3.575,0,0,0-.039-3.966,16.057,16.057,0,0,0-5.051-.355q-26.013-.03-52.027,0-30.364,0-60.708.02c-1.677,0-3.413-.256-5.268.592C3.9,87.726,3.9,88.851,3.9,90.291Zm78.346,15.961a43.592,43.592,0,0,0-5.9-11.7c-5.071-.414-19.079-.3-21.979.178-2.94,4.5-5.051,9.1-5.327,11.562C52.233,106.884,78.849,106.884,82.242,106.252Zm2.17,4.3c-1.144-.059-2.446-.158-3.729-.158-10.1-.02-20.183,0-30.285,0-.789,0-1.578-.02-2.368.039-2.308.2-3.295,1.716-2.881,4.34,2.525.335,35.2.572,39.676.276a13.4,13.4,0,0,0,1.559-.375A6.144,6.144,0,0,0,84.412,110.553Zm17.934-32.4c-4.676-.71-13.673-.572-16.316.2a4.153,4.153,0,0,0,.434,3.906c4.459.474,9.016.178,13.554.178a11.765,11.765,0,0,0,2.328-.533Z" transform="translate(0.013 0.063)"/>
      <path id="Path_62" data-name="Path 62" class="cls-1" d="M296.217,136.218c.888.829,1.815,1.578,2.585,2.446a8.891,8.891,0,0,1-2.21,13.574,12,12,0,0,1-3.315,1.144c-1.934.434-9.214.237-11.936-.217a6.026,6.026,0,0,1-.493-1.7q-.03-12.193.02-24.405a6.589,6.589,0,0,1,.3-1.322,9.632,9.632,0,0,1,2.131-.533c2.229-.059,4.459-.079,6.688.039a6.886,6.886,0,0,1,4.932,2.111,6.411,6.411,0,0,1,1.934,4.992C296.749,133.495,296.473,134.659,296.217,136.218Zm-11.443,13.357a21.417,21.417,0,0,0,7.714.276,5.26,5.26,0,0,0,4.715-4.064,5.134,5.134,0,0,0-4.2-6.392,32.8,32.8,0,0,0-6.235-.217,8,8,0,0,0-2.151.691A34.861,34.861,0,0,0,284.773,149.574Zm.02-14.264c2.091,0,3.906.118,5.7-.039a2.993,2.993,0,0,0,2.723-2.861,3.119,3.119,0,0,0-2.308-3.236,8.616,8.616,0,0,0-6.116.2A11.2,11.2,0,0,0,284.793,135.31Z" transform="translate(-225.424 -100.455)"/>
      <path id="Path_63" data-name="Path 63" class="cls-1" d="M166.653,153.924c-1.46-.079-2.308-.118-3.255-.158-.493-2.585-.967-5.011-1.46-7.537-3.354-.868-6.59-.493-9.845-.3-1.3,1.914-1.223,4.064-1.539,6.1-.3,1.874-.533,1.973-3.236,1.638-.671-1.3-.316-2.762-.1-4.143.513-3.512,1.144-6.984,1.716-10.5.454-2.723.908-5.445,1.381-8.148.138-.769.3-1.539.513-2.308a3.388,3.388,0,0,1,3.058-2.683,34.417,34.417,0,0,1,5.879,0,3.505,3.505,0,0,1,3.176,3.058c.434,2.052.75,4.123,1.085,6.2.769,4.794,1.559,9.589,2.289,14.383C166.5,150.806,166.515,152.108,166.653,153.924Zm-7.379-24.287a16.584,16.584,0,0,0-2.585-.335c-2.052.02-2.427.355-2.8,2.446-.473,2.585-.927,5.149-1.342,7.754a2.283,2.283,0,0,0,.592,2.446c1.8.02,3.867.079,5.958.059a11.5,11.5,0,0,0,2.052-.355A90.689,90.689,0,0,0,159.274,129.636Z" transform="translate(-117.938 -100.937)"/>
      <path id="Path_64" data-name="Path 64" class="cls-1" d="M436.24,145.521c-.592,4.005-2.348,6.077-5.9,6.886a17.2,17.2,0,0,1-7.438,0,7.333,7.333,0,0,1-5.86-5.7,13.771,13.771,0,0,1-.395-3.117c-.039-3.413-.059-6.846,0-10.259a13.142,13.142,0,0,1,.533-3.492,7.367,7.367,0,0,1,5.051-5.09,15.031,15.031,0,0,1,7.418-.355,7.828,7.828,0,0,1,6.826,6.649c-.829,1.1-1.855.868-2.861.691-.118-.079-.276-.118-.316-.237-1.736-3.63-4.913-3.966-8.346-3.611-2.742.276-4.459,1.8-4.577,4.538-.177,4.064-.177,8.148,0,12.213.118,2.545,1.736,4.025,4.281,4.4a21.421,21.421,0,0,0,2.762.1c2.249.02,4.123-.671,5.248-2.782C433.517,144.673,434.8,144.712,436.24,145.521Z" transform="translate(-334.412 -99.598)"/>
      <path id="Path_65" data-name="Path 65" class="cls-1" d="M345.1,293.1h3.1c.079.986.158,1.953.256,3.176H345.12C345.1,295.31,345.1,294.422,345.1,293.1Z" transform="translate(-277.011 -235.26)"/>
      <path id="Path_66" data-name="Path 66" class="cls-1" d="M304,295.83V292.4c.967-.059,1.815-.118,2.94-.2.158,1.046.316,1.993.493,3.216C306.249,295.574,305.3,295.672,304,295.83Z" transform="translate(-244.019 -234.538)"/>
      <path id="Path_67" data-name="Path 67" class="cls-1" d="M264.375,292.2v3.295c-.927.079-1.894.178-3.117.3-.059-1.2-.1-2.17-.158-3.393C262.185,292.338,263.053,292.279,264.375,292.2Z" transform="translate(-209.583 -234.538)"/>
      <path id="Path_68" data-name="Path 68" class="cls-1" d="M222.713,292.3v3.393c-1.026.059-1.894.1-3.019.158-.118-1.065-.237-2.032-.395-3.275C220.484,292.478,221.431,292.4,222.713,292.3Z" transform="translate(-176.03 -234.618)"/>
      <path id="Path_69" data-name="Path 69" class="cls-1" d="M139.534,296.6H136.4c-.059-1.006-.118-1.993-.2-3.2h3.334Z" transform="translate(-109.326 -235.501)"/>
      <path id="Path_70" data-name="Path 70" class="cls-1" d="M432.157,293.2v3.117c-.987.079-1.953.158-3.157.256V293.2Z" transform="translate(-344.357 -235.341)"/>
      <path id="Path_71" data-name="Path 71" class="cls-1" d="M472.455,292.2c.059,1.263.1,2.131.138,3.275-1.046.1-1.993.2-3.216.316-.059-1.2-.118-2.17-.178-3.393C470.3,292.338,471.153,292.279,472.455,292.2Z" transform="translate(-376.626 -234.538)"/>
      <path id="Path_72" data-name="Path 72" class="cls-1" d="M389.852,294.035c.039,1.4-.434,1.914-1.736,1.894-1.144-.02-1.6-.474-1.618-1.638-.02-1.4.454-1.914,1.736-1.894C389.358,292.418,389.812,292.871,389.852,294.035Z" transform="translate(-310.24 -234.696)"/>
      <path id="Path_73" data-name="Path 73" class="cls-1" d="M512.2,296.01v-3.058a7.389,7.389,0,0,1,2.151-.158c.789.2,1.1,1.6.612,2.683C514.469,296.582,513.482,296.188,512.2,296.01Z" transform="translate(-411.142 -234.974)"/>
      <path id="Path_74" data-name="Path 74" class="cls-1" d="M180.085,292.4c1.144.02,1.578.493,1.6,1.736.02,1.263-.395,1.756-1.519,1.8-1.361.039-1.874-.513-1.8-1.914C178.427,292.812,178.881,292.378,180.085,292.4Z" transform="translate(-143.168 -234.696)"/>
    </g>
    <g id="Ellipse_32" data-name="Ellipse 32" class="cls-2" transform="translate(397.273 4025.344)">
      <ellipse class="cls-5" cx="20.364" cy="20.364" rx="20.364" ry="20.364"/>
      <ellipse class="cls-6" cx="20.364" cy="20.364" rx="18.364" ry="18.364"/>
    </g>
    <g id="Path_142" data-name="Path 142" class="cls-3" transform="translate(232.5 3810.331)">
      <path class="cls-5" d="M37.5,215.051l17.863-30.083,17.863,30.083Z"/>
      <path class="cls-7" d="M 66.19842529296875 211.0508117675781 L 55.36276245117188 192.8020477294922 L 44.52710342407227 211.0508117675781 L 66.19842529296875 211.0508117675781 M 73.22552490234375 215.0508117675781 L 37.50000381469727 215.0508117675781 L 55.36276245117188 184.9674377441406 L 73.22552490234375 215.0508117675781 Z"/>
    </g>
    <line id="Line_9" data-name="Line 9" class="cls-4" y1="30.545" x2="30.545" transform="translate(292.273 4080.708)"/>
  </g>
</svg>
