<svg xmlns="http://www.w3.org/2000/svg" viewBox="0 0 150.492 138.117">
  <defs>
    <style>
      .cls-1 {
        fill: #ff9300;
      }

      .cls-2, .cls-3 {
        fill: none;
        stroke-linecap: round;
        stroke-width: 4px;
      }

      .cls-2 {
        stroke: #ffd800;
      }

      .cls-3 {
        stroke: #00fc7e;
      }
    </style>
  </defs>
  <g id="Group_606" data-name="Group 606" transform="translate(-735.33 -3998.061)">
    <g id="Group_34" data-name="Group 34" transform="translate(735.33 4004.963)">
      <path id="Path_75" data-name="Path 75" class="cls-1" d="M65.867,57.787c-1.668-1.151-3.3-2.263-5.2-3.573Q44.5,60.348,27.832,66.641c-.873-1.866-1.648-3.514-2.342-5.022-1.489-.576-2.521.278-3.593.655-4.844,1.747-9.648,3.613-14.472,5.4-.973.357-1.985.675-3.137,1.052C2.243,65.489,1.469,61.916,0,58.343c1.032-.536,1.767-1.012,2.581-1.33,5.062-1.945,10.124-3.831,15.186-5.777.973-.377,1.906-.814,2.8-1.211.417-2.283-1.33-3.871-1.27-6.194.913-.417,1.926-.953,3-1.37Q50.432,31.712,78.571,21c4.685-1.787,9.39-3.573,14.075-5.38.973-.377,1.926-.834,2.978-1.29.278-1.727-.973-3.057-1.032-4.883,3.672-2.084,7.861-3.216,11.851-4.824,4.03-1.568,8.119-3.037,12.328-4.625a15.573,15.573,0,0,1,1.33,2.144Q125.579,16.377,131,30.65a13.3,13.3,0,0,1,.4,1.787c-2.62,1.687-16.735,7.266-24.08,9.548-1.608-.873-1.231-3.137-2.66-4.129-3.057.6-22.571,7.881-27.693,10.323-.774,2.025-1.211,4.189-2.362,5.856-1.072,1.548-2.918,2.581-4.7,4.089a85.576,85.576,0,0,0-.02,11.514,8.531,8.531,0,0,0,1.39,3.633C75.2,80,79.207,86.711,83.177,93.42c6.074,10.243,12.109,20.487,18.243,30.69a7.819,7.819,0,0,1,.993,6.888h-2.68a4.484,4.484,0,0,1-.476-1.191,7.855,7.855,0,0,0-1.191-4.129c-2.739-4.526-5.459-9.052-8.1-13.638a3.938,3.938,0,0,0-3.792-2.283c-4.625.079-9.251.02-13.9.06a10.543,10.543,0,0,0-1.767.3c-1.012,1.31-.754,2.68-.774,3.99-.04,4.228,0,8.457-.02,12.7a28.069,28.069,0,0,1-.2,3.156c-.1.814-.814,1.231-1.767,1.171-.715-.06-1.31-.337-1.409-1.112a28.066,28.066,0,0,1-.2-3.156c-.02-4.228.02-8.477-.02-12.7-.02-1.29.258-2.66-.774-4.03a18.178,18.178,0,0,0-2.521-.318c-4.228-.04-8.477.04-12.7-.04a4.187,4.187,0,0,0-4.189,2.3c-2.6,4.606-5.32,9.132-8.079,13.658a7.469,7.469,0,0,0-1.171,4.665,2.518,2.518,0,0,1-3.117.476,2.669,2.669,0,0,1-.357-.715c-.476-2.342.337-4.347,1.529-6.352C44.546,107.336,54.273,90.8,64.1,74.343a12.385,12.385,0,0,0,2.065-7.464C65.966,63.862,66.4,60.8,65.867,57.787ZM24.238,45.718c.3,3.375,3.931,12.923,6.094,16.02,9.608-3.613,19.315-7.206,28.824-11.017.3-1.429.536-2.6.794-3.752a8.241,8.241,0,0,1,12.983-4.447c.834.615,1.628,1.29,2.541,2.025,3.137-1.191,6.213-2.362,9.29-3.534s6.213-2.243,9.251-3.514c3.017-1.231,6.253-1.985,8.973-3.752-.536-3.712-4.308-13.281-6.233-15.663Q60.7,31.782,24.238,45.718Zm102.373-15.4a4.072,4.072,0,0,0-.1-1.092q-4.437-11.643-8.933-23.246a5.1,5.1,0,0,0-.774-1.012c-3.136.556-5.955,1.985-8.874,3.117-2.878,1.132-6.015,1.747-8.516,3.672a6.772,6.772,0,0,0,.2,1.37q4.347,11.464,8.754,22.889a4.92,4.92,0,0,0,.873,1.112C113.411,36.149,124.229,31.921,126.612,30.313ZM85.678,105.728a5.435,5.435,0,0,0-.357-1.409Q78.383,92.586,71.405,80.874c-.179-.3-.556-.5-1.072-.973a8.519,8.519,0,0,0-.516,1.965q-.06,10.869,0,21.737a10.34,10.34,0,0,0,.457,2.124A66.635,66.635,0,0,0,85.678,105.728ZM65.37,80.239c-2,2.223-9.509,14.452-14.452,23.564a17.186,17.186,0,0,0-.695,1.767c3.137.834,12.407.814,15.524.02a13.8,13.8,0,0,0,.357-2.263q0-11.107-.079-22.214a1.4,1.4,0,0,0-.357-.675C65.628,80.338,65.489,80.3,65.37,80.239ZM22.194,53.7c-3.3,1.072-6.114,2.124-8.893,3.256-2.739,1.132-5.737,1.687-8.437,3.653.476,1.151.893,2.184,1.251,3.077.457.06.615.119.715.079,5.4-2.025,10.779-4.05,16.159-6.114.179-.079.258-.417.5-.834C23.166,56,22.769,55.068,22.194,53.7Zm45.678.06a4.683,4.683,0,0,0,4.784-4.7,4.948,4.948,0,0,0-4.645-4.526,4.879,4.879,0,0,0-4.784,4.784A4.682,4.682,0,0,0,67.872,53.757Z"/>
      <path id="Path_76" data-name="Path 76" class="cls-1" d="M53.5,398.9a10.6,10.6,0,0,1,21.2.2,10.6,10.6,0,1,1-21.2-.2Zm17.608.3a7.1,7.1,0,0,0-7.067-6.988,6.82,6.82,0,0,0-6.928,6.611,7.136,7.136,0,0,0,6.789,7.266A7.209,7.209,0,0,0,71.1,399.2Z" transform="translate(-42.875 -311.375)"/>
      <path id="Path_77" data-name="Path 77" class="cls-1" d="M547.914,326.433a8.263,8.263,0,0,1-8.417-8.139,8.472,8.472,0,0,1,8.516-8.5,8.275,8.275,0,0,1,8.139,8.417A8.02,8.02,0,0,1,547.914,326.433Zm-.2-3.633a4.713,4.713,0,0,0,4.864-4.645,4.705,4.705,0,0,0-9.409.06A4.786,4.786,0,0,0,547.716,322.8Z" transform="translate(-432.4 -248.298)"/>
      <path id="Path_78" data-name="Path 78" class="cls-1" d="M139.791,44.238a8.276,8.276,0,0,1-8.119,8.437,8.37,8.37,0,0,1-8.476-8.516A8.228,8.228,0,0,1,131.553,36,8.1,8.1,0,0,1,139.791,44.238Zm-3.673,0a4.594,4.594,0,0,0-4.467-4.606,4.712,4.712,0,0,0-4.8,4.7,4.8,4.8,0,0,0,4.506,4.625A4.682,4.682,0,0,0,136.118,44.238Z" transform="translate(-98.738 -28.853)"/>
    </g>
    <path id="Path_143" data-name="Path 143" class="cls-2" d="M37.5,201.788,50.758,188.53l13.258,13.258L77.274,188.53l13.258,13.258,13.258-13.258,13.258,13.258" transform="translate(766.773 3909.397)"/>
    <g id="Group_35" data-name="Group 35" transform="translate(792.819 4000.889)">
      <line id="Line_1" data-name="Line 1" class="cls-3" x2="22.909" y2="22.909" transform="translate(0 0)"/>
      <line id="Line_2" data-name="Line 2" class="cls-3" x1="22.909" y2="22.909" transform="translate(0 0)"/>
    </g>
  </g>
</svg>
