<svg xmlns="http://www.w3.org/2000/svg" viewBox="0 0 77.034 90.968">
  <defs>
    <style>
      .cls-1 {
        fill: #fff;
      }
    </style>
  </defs>
  <g id="Group_11" data-name="Group 11" transform="translate(5674 1081)">
    <path id="Path_35" data-name="Path 35" class="cls-1" d="M13.266,37.3a182.234,182.234,0,0,1,25.306-1.784A16.626,16.626,0,0,0,35,29.16s-2.453-2.787-6.02-.223c-.78.557-2.676,0-4.125-3.121.111.111,1.672.334,1.561-.669,0,0-2.453-.223-1.449-3.456h.223a2.167,2.167,0,0,0,2.007-1,8.109,8.109,0,0,0,2.564-.446c.669-.223.223-1.226-.334-.892a3.247,3.247,0,0,1-.892.223c-.557-.111-.446-.334.223-.557,1.115-.334,1.9-.334,2.118.334,0,0,.223.78.557.334.446-.557.78-2.341-1.9-2.564a6.02,6.02,0,0,0-2.23-1.784s-4.459-1.9-8.472,3.121a8.583,8.583,0,0,1-3.01,3.121c-.111.111.223,1,2.118.111,0,0-.78,3.456-3.01,5.017-.223.111,1,1.115,2.341-.111,0,0,0,4.348-2.787,3.679-1.338-.111-3.679-2.453-5.574-2.564,0,0-5.463-.78-7.135,11.036-.446,5.24.446,6.131-1.784,8.472,0,0,1.784,1.449,3.456-1.9a30.067,30.067,0,0,0-.446,8.584c.557,5.017,1.561,6.912.892,8.361.111.334,2.23.892,3.121-3.233a40.113,40.113,0,0,0,4.236,11.037c3.233,5.351,1.672,5.685,2.007,5.574,2.341-.669,3.233-3.567,3.567-4.905C12.04,55.58,13.266,37.3,13.266,37.3M24.3,16.339c0,.78,1.672.557,1.672.557-.557.669-.223.892.111.78s.334-.78.334-.78c1.449-.111,1.672.334,1.672.334-.892-.334-1.115.111-1.115.111-1,1.449-1.672.223-1.561-.111-1.672-.446-1.115-.892-1.115-.892" transform="translate(-5674 -1079.28)"/>
    <path id="Path_36" data-name="Path 36" class="cls-1" d="M71.288,39.047C69.616,27.23,64.154,28.01,64.154,28.01c-1.9,0-4.236,2.341-5.574,2.564-2.787.669-2.787-3.679-2.787-3.679,1.338,1.115,2.564.223,2.341.111-2.23-1.561-3.01-5.017-3.01-5.017,1.9.892,2.23,0,2.118-.111a8.583,8.583,0,0,1-3.01-3.121c-4.013-5.017-8.472-3.121-8.472-3.121a5.016,5.016,0,0,0-2.23,1.784c-2.564.223-2.341,2.007-1.9,2.564.334.446.557-.334.557-.334.223-.78,1-.669,2.118-.334.669.223.78.446.223.557a3.247,3.247,0,0,1-.892-.223c-.446-.334-1,.669-.334.892a7.708,7.708,0,0,0,2.564.446,2.249,2.249,0,0,0,2.007,1H48.1c1,3.233-1.449,3.456-1.449,3.456-.111,1,1.449.78,1.561.669-1.449,3.121-3.344,3.679-4.125,3.121-3.679-2.564-6.02.223-6.02.223A19.308,19.308,0,0,0,34.5,35.814h0A182.234,182.234,0,0,1,59.806,37.6s1.226,18.283-3.567,33.444c.334,1.338,1.226,4.236,3.567,4.905.334.111-1.226-.334,2.007-5.574a40.112,40.112,0,0,0,4.236-11.037c.78,4.013,3.01,3.567,3.121,3.233-.669-1.449.223-3.233.892-8.361a25.947,25.947,0,0,0-.446-8.584c1.672,3.344,3.456,1.9,3.456,1.9-2.118-2.676-1.115-3.567-1.784-8.472M47.878,17.2c.111.334-.557,1.561-1.561.111,0,0-.223-.557-1.115-.111,0,0,.223-.446,1.672-.334a1.046,1.046,0,0,0,.334.78c.334.111.669-.111.111-.78,0,0,1.672.223,1.672-.557-.111,0,.557.446-1.115.892" transform="translate(-5670.039 -1079.245)"/>
    <path id="Path_37" data-name="Path 37" class="cls-1" d="M61.027,36.472a171.015,171.015,0,0,0-47.713,0s-3.344,50.5,23.857,50.5,23.857-50.5,23.857-50.5M45.42,66.683l-6.131-2.9-2.23,6.354-2.23-6.354-6.131,2.9,2.9-6.131-6.354-2.23,6.354-2.23-2.9-6.131,6.131,2.9,2.23-6.354,2.23,6.354,6.131-2.9-2.9,6.131,6.354,2.23-6.354,2.23Z" transform="translate(-5672.486 -1077.005)"/>
    <path id="Path_38" data-name="Path 38" class="cls-1" d="M30.8,7.1c.334-.669,1.9-1,4.236-1h0c2.453,0,3.9.334,4.236,1,.111.223-.446.223-.446.223-.111-.223-1.115-.78-3.9-.78-3.344,0-3.79.669-3.9.78.111,0-.334-.111-.223-.223" transform="translate(-5670.466 -1080.3)"/>
    <path id="Path_39" data-name="Path 39" class="cls-1" d="M35.427,10.145h0c4.682,0,5.463-1.9,5.463-1.9l2.453-5.8s-.892-.223-1.115.334c0,0-1.9-.446-1.449,1.561,0,0-.892,1.226-1.561-.223,0,0-.223-.669.334-.669,0,0,1.226,0,.446-1.115,0,0,0-2.341-1.561-.557,0,0-1.449.223-.446,1.449,0,0-1.672,2.118-2.007-.446,0,0,1.9-.78.111-1.338C36.1,0,35.538,0,35.427,0h0c-.669,0-.78,1.226-.78,1.226-1.784.557.111,1.338.111,1.338-.223,2.676-2.007.446-2.007.446,1-1.226-.446-1.449-.446-1.449-1.561-1.672-1.561.669-1.561.669-.78,1.115.446,1.115.446,1.115.557,0,.334.669.334.669-.669,1.449-1.561.223-1.561.223.446-2.007-1.449-1.561-1.449-1.561-.223-.557-1.115-.334-1.115-.334l2.564,5.8c.111.111.78,2.007,5.463,2.007M31.19,7.8c.334-.669,1.9-1,4.236-1h0c2.453,0,3.9.334,4.236,1,.111.223-.446.223-.446.223-.111-.223-1.115-.78-3.9-.78-3.344,0-3.79.669-3.9.78.111,0-.334-.111-.223-.223" transform="translate(-5670.853 -1081)"/>
  </g>
</svg>
